<svg id="social-icons" xmlns="http://www.w3.org/2000/svg" version="1.1">
	<symbol id="fivehundredpx-icon">
		<path d="M7.9,21.1c0,0,0.2,0.5,0.3,0.7c0.5,1.2,1.2,2.4,2.3,3.3c0.9,0.9,2.1,1.7,3.3,2.3c1.3,0.5,2.7,0.8,4.1,0.8
			c1.4,0,2.8-0.3,4.1-0.8c1.2-0.5,2.4-1.2,3.3-2.3c0.9-0.9,1.7-2.1,2.3-3.3c0.5-1.3,0.8-2.7,0.8-4.1c0-1.4-0.3-2.8-0.8-4.1
			c-0.5-1.2-1.2-2.4-2.3-3.3c-1-0.9-2.1-1.7-3.3-2.3c-1.3-0.5-2.7-0.8-4.1-0.8c-1.4,0-2.9,0.3-4.1,0.8c-1,0.4-2.8,1.5-3.7,2.6l0,0
			V2.1h14.4C25,2.1,25,1.3,25,1c0-0.2,0-0.9-0.5-1H8.7C8.3,0,8,0.3,8,0.7v12.1c0,0.4,0.5,0.7,0.9,0.7c0.9,0.2,1.1-0.1,1.3-0.4l0,0
			c0.3-0.5,1.3-1.5,1.3-1.5c1.6-1.6,3.8-2.5,6.1-2.5s4.4,0.9,6.1,2.5c1.6,1.6,2.5,3.7,2.5,6.1c0,2.3-0.9,4.4-2.5,6.1
			c-1.5,1.5-3.8,2.5-6.1,2.5c-1.5,0-3-0.4-4.3-1.2v-7.3c0-1,0.4-2.1,1.1-2.9c0.8-0.9,1.9-1.4,3.2-1.4s2.3,0.4,3.1,1.2
			c0.8,0.8,1.2,1.8,1.2,3.1c0,2.5-1.9,4.4-4.4,4.4c-0.5,0-1.3-0.2-1.3-0.2c-0.4-0.1-0.6,0.6-0.6,0.8c-0.3,0.9,0.1,1,0.2,1
			c0.8,0.2,1.3,0.3,1.9,0.3c3.5,0,6.3-2.9,6.3-6.3c0-3.5-2.9-6.3-6.3-6.3c-1.7,0-3.3,0.6-4.5,1.8c-1.1,1.1-1.8,2.7-1.8,4.1l0,0
			c0,0.2,0,4.6,0,6.1l0,0c-0.6-0.7-1.3-1.8-1.7-3c-0.2-0.4-0.5-0.4-1-0.2C8.4,20.4,7.8,20.6,7.9,21.1L7.9,21.1z M15.3,19.4
			c0,0.2,0.2,0.4,0.3,0.5l0,0c0.2,0.2,0.4,0.3,0.5,0.3c0.1,0,0.2-0.1,0.3-0.1c0.1-0.1,1-1.1,1.1-1.1l1.1,1.1c0.1,0.1,0.2,0.2,0.3,0.2
			c0.2,0,0.4-0.1,0.6-0.3c0.5-0.5,0.2-0.7,0.1-0.8l-1-1.2l1.1-1.1c0.2-0.3,0-0.6-0.2-0.8c-0.3-0.3-0.6-0.4-0.8-0.2l-1.1,1.1l-1.1-1.1
			c-0.1-0.1-0.1-0.1-0.2-0.1c-0.2,0-0.3,0.1-0.5,0.3c-0.4,0.3-0.4,0.6-0.2,0.8l1.1,1.1l-1.1,1.1C15.4,19.2,15.3,19.3,15.3,19.4z
			 M17.9,3.6c-1.8,0-3.9,0.4-5.3,1c-0.2,0.1-0.2,0.2-0.3,0.4c0,0.2,0,0.4,0.1,0.7c0.1,0.2,0.3,0.8,0.8,0.6c1.5-0.6,3.2-0.9,4.6-0.9
			c1.7,0,3.4,0.3,4.9,1c1.2,0.5,2.4,1.2,3.7,2.4c0.1,0.1,0.2,0.1,0.3,0.1c0.2,0,0.5-0.2,0.7-0.5c0.3-0.4,0.6-0.7,0.2-1
			c-1.2-1.1-2.6-2.1-4.2-2.7C21.8,4,19.8,3.6,17.9,3.6z M27.9,26.7L27.9,26.7c-0.2-0.2-0.4-0.3-0.6-0.4c-0.2,0-0.3,0-0.4,0.1
			l-0.1,0.1c-1.1,1.1-2.5,2.1-4,2.7s-3.2,1-4.9,1c-1.7,0-3.4-0.3-4.9-1c-1.5-0.6-2.9-1.5-4-2.7c-1.2-1.2-2.2-2.6-2.7-4
			C5.7,21,5.6,20,5.5,19.6v-0.1c-0.1-0.4-0.4-0.4-1-0.3c-0.2,0-0.9,0.1-0.8,0.6l0,0c0.2,1.1,0.5,2.3,0.9,3.4c0.7,1.7,1.7,3.3,3.1,4.6
			c1.3,1.3,2.9,2.4,4.6,3.1c1.7,0.7,3.7,1.1,5.6,1.1s3.8-0.4,5.6-1.1c1.7-0.7,3.3-1.7,4.6-3.1l0.1-0.1C28.4,27.5,28.5,27.2,27.9,26.7
			z"/>
	</symbol>
	<symbol id="airbnb-icon">
		<path d="M30.4,22.7c-0.1-0.4-0.3-0.8-0.5-1.2c-0.2-0.6-0.5-1.1-0.8-1.6v0C27,15,24.6,10.2,22.2,5.4l-0.1-0.2
			c-0.2-0.5-0.5-1-0.8-1.5c-0.3-0.6-0.7-1.2-1.1-1.8C19.1,0.7,17.6,0,16,0c-1.6,0-3,0.7-4.1,1.9c-0.5,0.6-0.8,1.2-1.1,1.8
			c-0.3,0.5-0.5,1-0.8,1.5L9.9,5.4C7.4,10.2,5,15,2.8,19.8l0,0.1c-0.2,0.5-0.5,1.1-0.7,1.6c-0.2,0.4-0.3,0.8-0.5,1.2
			C1.2,23.9,1,25,1.2,26.1c0.3,2.4,1.9,4.4,4.2,5.3C6.2,31.8,7.1,32,8,32c0.3,0,0.6,0,0.8-0.1c1.1-0.1,2.2-0.5,3.2-1.1
			c1.3-0.7,2.6-1.8,4-3.3c1.4,1.5,2.7,2.6,4,3.3c1.1,0.6,2.1,1,3.2,1.1c0.3,0,0.6,0.1,0.8,0.1c0.9,0,1.8-0.2,2.6-0.5
			c2.2-0.9,3.8-2.9,4.2-5.3C31,25,30.8,23.9,30.4,22.7L30.4,22.7z M28.8,25.8c-0.2,1.7-1.4,3.1-2.9,3.7c-0.8,0.3-1.6,0.4-2.4,0.3
			c-0.8-0.1-1.6-0.4-2.4-0.8c-1.2-0.7-2.3-1.7-3.6-3.1c2.1-2.6,3.4-5,3.9-7.1c0.2-1,0.3-1.9,0.1-2.7c-0.1-0.8-0.4-1.6-0.9-2.2
			c-1-1.4-2.7-2.2-4.5-2.2c-1.8,0-3.5,0.8-4.5,2.3c-0.4,0.6-0.7,1.4-0.8,2.2c-0.1,0.8-0.1,1.8,0.1,2.7c0.5,2.1,1.8,4.5,3.9,7.1
			c-1.3,1.5-2.5,2.5-3.6,3.1c-0.8,0.5-1.6,0.8-2.5,0.8c-0.9,0.1-1.7,0-2.5-0.3c-1.6-0.6-2.7-2.1-2.9-3.7c-0.1-0.8,0-1.6,0.3-2.5
			c0.1-0.3,0.2-0.6,0.4-1c0.2-0.5,0.5-1.1,0.7-1.6l0-0.1c2.2-4.8,4.6-9.6,7-14.4l0.1-0.2c0.2-0.5,0.5-1,0.8-1.5
			c0.3-0.5,0.5-1,0.9-1.4C14.1,2.5,15,2,15.9,2c1,0,1.9,0.4,2.5,1.2c0.4,0.4,0.6,0.9,0.9,1.4c0.3,0.5,0.5,1,0.8,1.5l0.1,0.2
			c2.5,4.8,4.8,9.6,7,14.4l0,0c0.2,0.5,0.5,1.1,0.7,1.6c0.2,0.4,0.3,0.7,0.4,1c0.3,0.9,0.4,1.7,0.3,2.5L28.8,25.8z M16,24.3
			c-1.7-2.2-2.8-4.2-3.2-6c-0.2-0.7-0.2-1.4-0.1-2c0.1-0.5,0.3-1,0.5-1.3c0.6-0.9,1.7-1.4,2.8-1.4s2.2,0.5,2.8,1.4
			c0.3,0.4,0.4,0.8,0.5,1.3c0.1,0.6,0.1,1.3-0.1,2C18.9,20.1,17.7,22.2,16,24.3L16,24.3z"/>
	</symbol>
	<symbol id="bandsintown-icon">
		<path d="M8.9,24.3h15.3v1.3H7.7V0H1.3v32h29.5V17.9H9L8.9,24.3L8.9,24.3z M15.3,7.7H8.9v8.9h6.4V7.7z M23.1,7.7h-6.4v8.9h6.4V7.7z
			 M24.3,0v16.7h6.4V0H24.3z"/>
	</symbol>
	<symbol id="behance-icon">
		<path d="M12.9,15c0.9-0.4,1.6-1,2-1.6s0.6-1.5,0.6-2.5s-0.1-1.7-0.4-2.3s-0.7-1.2-1.3-1.5c-0.5-0.4-1.2-0.6-2-0.9
			c-0.7-0.2-1.6-0.2-2.6-0.2H0v19.7h9.5c0.9,0,1.7-0.1,2.6-0.3c0.9-0.2,1.6-0.5,2.2-1.1c0.6-0.4,1.2-1.1,1.6-1.8
			c0.4-0.7,0.5-1.6,0.5-2.6c0-1.3-0.3-2.2-0.9-3.2C15,16,14.1,15.4,12.9,15z M4.4,9.4h4.1c0.4,0,0.7,0,1.1,0.1c0.3,0.1,0.6,0.2,1,0.3
			c0.3,0.2,0.5,0.4,0.6,0.6c0.2,0.3,0.2,0.6,0.2,1.2c0,0.9-0.2,1.4-0.7,1.8C10,13.8,9.4,14,8.6,14H4.3V9.4H4.4L4.4,9.4z M11.9,21.1
			c-0.2,0.3-0.4,0.6-0.7,0.7c-0.3,0.2-0.6,0.3-1.1,0.4S9.4,22.4,9,22.4H4.4V17h4.7c1,0,1.7,0.2,2.2,0.6c0.5,0.4,0.9,1.2,0.9,2.1
			C12.2,20.4,12.1,20.8,11.9,21.1z M31.7,16.4c-0.2-1-0.6-1.9-1.3-2.7c-0.5-0.9-1.3-1.5-2.1-1.9s-1.9-0.7-3.2-0.7c-1.1,0-2,0.2-3,0.5
			c-0.9,0.4-1.7,1-2.3,1.6c-0.6,0.6-1.2,1.5-1.5,2.3c-0.3,1-0.5,1.9-0.5,3c0,1.1,0.2,2.1,0.5,3c0.3,1,0.9,1.7,1.5,2.3
			c0.6,0.6,1.4,1.2,2.3,1.5c1,0.3,1.9,0.5,3.1,0.5c1.6,0,3-0.3,4.2-1.1c1.2-0.7,2-1.9,2.6-3.6h-3.4c-0.1,0.4-0.4,0.9-1.1,1.3
			c-0.5,0.4-1.3,0.6-2,0.6c-1.1,0-1.9-0.3-2.6-0.9c-0.6-0.5-1-1.6-1-2.8H32C32,18.5,32,17.4,31.7,16.4z M21.7,17.1
			c0-0.3,0.1-0.6,0.2-1c0.1-0.3,0.3-0.6,0.5-1c0.2-0.3,0.5-0.5,1-0.7c0.4-0.2,1-0.3,1.6-0.3c1,0,1.7,0.3,2.2,0.7
			c0.4,0.5,0.9,1.3,0.9,2.2H21.7L21.7,17.1z M28.9,7.4h-8v1.9h8V7.4z"/>
	</symbol>
	<symbol id="buffer-icon">
		<path d="M31.7,24.3c0.4,0.2,0.4,0.4,0,0.5l-15.1,7c-0.4,0.2-0.8,0.2-1.1,0l-15.1-7c-0.4-0.1-0.4-0.3,0-0.5l3.6-1.6
		c0.4-0.2,0.8-0.2,1.1,0l10.4,4.8c0.4,0.2,0.8,0.2,1.1,0L27,22.7c0.4-0.2,0.8-0.2,1.1,0L31.7,24.3z M31.7,15.7c0.4,0.2,0.4,0.4,0,0.6
		l-15.1,7c-0.4,0.1-0.8,0.1-1.1,0l-15.1-7c-0.4-0.2-0.4-0.4,0-0.6l3.6-1.6c0.4-0.2,0.8-0.2,1.1,0l10.4,4.8c0.4,0.2,0.8,0.2,1.1,0
		L27,14.1c0.4-0.2,0.8-0.2,1.1,0C28.1,14.1,31.7,15.7,31.7,15.7z M0.3,7.7c-0.4-0.2-0.4-0.4,0-0.5l15.1-7c0.4-0.2,0.8-0.2,1.1,0
		l15.1,7c0.4,0.1,0.4,0.3,0,0.5l-15.1,7c-0.4,0.2-0.8,0.2-1.1,0L0.3,7.7z"/>
	</symbol>
	<symbol id="chownow-icon">
		<path d="M16,0C8.3,0,2.1,6.2,2.1,13.9c0,10.1,11.5,16.7,12,17.2c0,0,1.2,0.9,1.9,0.9c0.5,0,1.7-0.9,1.7-0.9
			c0.5-0.5,12.2-7.2,12.2-17.2C29.9,6.2,23.7,0,16,0z M16.1,23.3c-5.4,0-9.7-4.3-9.7-9.7S10.7,4,16.1,4s9.7,4.3,9.7,9.7
			S21.4,23.3,16.1,23.3z M11.6,9.3L11.6,9.3l2.6,2.4l1-1.1L12.9,8l0,0l0,0c-0.4-0.4-0.9-0.4-1.3,0C11.2,8.3,11.2,8.9,11.6,9.3
			L11.6,9.3z M22.7,16.6L22.7,16.6c0,0-0.7-2.1-2.6-3c-0.2-0.1-0.4-0.2-0.6-0.2h-0.1c-0.2,0-0.7,0-0.7,0s-0.7,0.1-1-0.3L17,12.5
			l3.4-3.1l0,0l0,0c0.4-0.4,0.4-0.9,0-1.3c-0.4-0.4-0.9-0.4-1.3,0l0,0l0,0L16,11.4l-1,1.1l-0.9,1c-0.4,0.4-1,0.2-1,0.2
			c-0.8-0.2-1.6,0.1-2.4,0.9c-1.2,1.2-1.8,3.2-0.9,4.1c0.9,0.9,2.9,0.3,4.1-0.9c0.8-0.8,1-1.7,0.9-2.4c0,0-0.1-0.6,0.2-1l1.1-1
			l0.8,0.7c0.4,0.4,0.3,1,0.3,1c0,0.2,0,0.6,0,0.6l0,0c0,0.3,0.2,0.5,0.3,0.8c0.9,1.8,3,2.5,3,2.5l0,0c0.2,0.1,0.4,0.1,0.5,0.2
			c0,0,0.1,0,0.2,0c0.1-0.1,0.1-0.1,0-0.2l-2.5-2.8l0,0c-0.1-0.1-0.1-0.2,0-0.3c0.1-0.1,0.2-0.1,0.3,0l0,0c0.1,0.1,1.9,1.7,2.8,2.5
			l0,0c0.1,0,0.2,0,0.3,0c0.1-0.1,0.1-0.2,0-0.3l0,0c-0.7-0.9-2.4-2.7-2.5-2.8l0,0c-0.1-0.1-0.1-0.2,0-0.3c0.1-0.1,0.2-0.1,0.3,0l0,0
			l2.7,2.5c0.1,0.1,0.2,0.1,0.2,0c0,0,0.1-0.1,0-0.1c0,0,0,0,0-0.1C22.8,16.9,22.8,16.8,22.7,16.6z"/>
	</symbol>
	<symbol id="codepen-icon">
		<path d="M3.7,20.9l10.9,7.2v-6.5l-6-4L3.7,20.9z M2.7,13.8v4.4L6.1,16L2.7,13.8z M14.6,10.4V3.9L3.7,11.1l4.9,3.2L14.6,10.4z
			 M28.3,11.1L17.4,3.9v6.5l6,4L28.3,11.1z M16,12.8L11.1,16l4.9,3.2l4.9-3.2L16,12.8z M32,21c0,0.5-0.2,0.9-0.6,1.1l-14.6,9.6
			c-0.5,0.3-1,0.3-1.5,0L0.7,22.1C0.2,21.9,0,21.4,0,21V11c0-0.5,0.2-0.9,0.6-1.1l14.6-9.6c0.5-0.3,1-0.3,1.5,0l14.6,9.6
			c0.4,0.3,0.6,0.7,0.6,1.1L32,21L32,21z M17.4,21.6v6.5l10.9-7.2l-4.9-3.2L17.4,21.6z M29.3,18.2v-4.4L25.9,16L29.3,18.2z"/>
	</symbol>
	<symbol id="deviantart-icon">
		<path d="M25.6,6.4l0.3-0.6V0h-5.8l-0.6,0.6l-2.7,5.2l-0.9,0.6H6.1v8h5.4L12,15L6.4,25.6l-0.3,0.6V32h5.8l0.6-0.6l2.8-5.2l0.9-0.6
			h9.8v-8h-5.4L20,17L25.6,6.4L25.6,6.4z"/>
	</symbol>
	<symbol id="dribbble-icon">
		<path d="M16,32C7.2,32,0,24.8,0,16S7.2,0,16,0s16,7.2,16,16S24.8,32,16,32z M29.5,18.2C29,18,25.3,16.9,21,17.6
			c1.8,4.9,2.5,8.9,2.7,9.7C26.7,25.3,28.9,22,29.5,18.2z M21.3,28.6c-0.2-1.2-1-5.4-2.9-10.4h-0.1c-7.7,2.7-10.5,8-10.7,8.5
			c2.3,1.8,5.2,2.9,8.4,2.9C17.9,29.7,19.7,29.3,21.3,28.6z M5.8,25.2c0.3-0.5,4.1-6.7,11.1-9c0.2-0.1,0.4-0.1,0.5-0.2
			c-0.3-0.8-0.7-1.6-1.1-2.3c-6.8,2-13.4,2-14,1.9c0,0.1,0,0.3,0,0.4C2.3,19.5,3.7,22.7,5.8,25.2z M2.6,13.2c0.6,0,6.2,0,12.6-1.7
			c-2.3-4-4.7-7.4-5.1-7.9C6.4,5.5,3.5,9,2.6,13.2z M12.8,2.7c0.4,0.5,2.9,3.9,5.1,8c4.9-1.8,6.9-4.6,7.2-4.9
			c-2.4-2.1-5.6-3.4-9.1-3.4C14.9,2.4,13.8,2.5,12.8,2.7z M26.6,7.4c-0.3,0.4-2.6,3.3-7.6,5.4c0.3,0.7,0.6,1.3,0.9,2
			c0.1,0.2,0.2,0.5,0.3,0.7c4.5-0.6,9.1,0.3,9.5,0.4C29.6,12.7,28.5,9.7,26.6,7.4z"/>
	</symbol>
	<symbol id="dropbox-icon">
		<path d="M9.4,1L0,7.3l6.5,5.2L16,6.6L9.4,1z M0,17.6l9.4,6.1l6.6-5.5l-9.5-5.9L0,17.6z M16,18.2l6.6,5.5l9.4-6.1l-6.5-5.2L16,18.2z
			 M32,7.2l-9.4-6.1L16,6.5l9.5,5.9L32,7.2z M16,19.4l-6.6,5.5l-2.8-1.8v2.1L16,31l9.4-5.7v-2.1L22.6,25L16,19.4z"/>
	</symbol>
	<symbol id="email-icon">
		<path d="M29,5H3C1.3,5,0,6.3,0,8v16c0,1.7,1.3,3,3,3h26c1.7,0,3-1.3,3-3V8C32,6.3,30.7,5,29,5z M28.4,7l-12.2,9.6
			c-0.1,0.1-0.3,0.1-0.3,0L3.6,7H28.4z M2,23.6V8.3l8.6,6.7L2,23.6z M3.4,25l8.7-8.7l0,0l2.4,1.9c0.4,0.3,0.9,0.5,1.4,0.5
			s1-0.2,1.4-0.5l2.4-1.9l8.7,8.7H3.4z M30,23.6L21.4,15L30,8.3V23.6z"/>
	</symbol>
	<symbol id="etsy-icon">
		<path d="M11.5,3.3c0-0.4,0-0.7,0.8-0.7h9.9c1.8,0,2.7,1.4,3.4,4.2l0.5,2.3h1.7C28.1,2.8,28.3,0,28.3,0s-4.1,0.5-6.7,0.5H8.9
			L2.1,0.3v1.9l2.3,0.4c1.7,0.3,2,0.6,2.2,2.2c0,0,0.1,4.3,0.1,11.6S6.5,27.8,6.5,27.8c0,1.3-0.5,1.8-2.2,2.1l-2.3,0.4V32l6.8-0.2
			h11.4c2.6,0,8.6,0.2,8.6,0.2c0.1-1.5,1-8.7,1.1-9.4h-1.5l-1.7,3.9c-1.3,3-3.3,3.3-5.5,3.3h-6.5c-2.2,0-3.2-0.8-3.2-2.8V17
			c0,0,4.9,0,6.4,0.1c1.2,0.1,2,0.4,2.4,2.2l0.5,2.3h1.9l-0.1-5.7l0.3-5.8h-1.9l-0.6,2.5c-0.4,1.7-0.6,2-2.4,2.2
			C15.7,15,11.5,15,11.5,15V3.3L11.5,3.3z"/>
	</symbol>
	<symbol id="facebook-icon">
		<path d="M19.9,6.1H24V0h-4.9c-5.8,0.3-7.1,3.5-7.1,7l0,0v3.1H8V16h4v16h6V16h5l0.9-5.9H18V8.2C18,7,18.8,6.1,19.9,6.1z"/>
	</symbol>
	<symbol id="flickr-icon">
		<path d="M16,0C7.2,0,0,7.2,0,16s7.2,16,16,16s16-7.2,16-16S24.8,0,16,0z M10,21c-2.8,0-5-2.2-5-5s2.2-5,5-5s5,2.2,5,5
			S12.8,21,10,21z M22,21c-2.8,0-5-2.2-5-5s2.2-5,5-5s5,2.2,5,5S24.8,21,22,21z"/>
	</symbol>
	<symbol id="foursquare-icon">
		<path d="M24.7,0c0,0-14.8,0-17,0C5.3,0,4.5,1.8,4.5,2.9c0,1.1,0,27.1,0,27.1c0,1.2,0.7,1.8,1,1.9C6,32,7,32.2,7.6,31.5
			c0,0,8.1-9.4,8.2-9.5c0.2-0.2,0.2-0.2,0.4-0.2c0.4,0,3.5,0,5.3,0c2.2,0,2.6-1.5,2.8-2.5c0.2-0.7,2.4-11.7,3-15.2
			C27.9,1.4,27.1,0,24.7,0z M24.3,19.3c0.2-0.7,2.4-11.7,3-15.2 M23.6,4.6l-0.7,3.7c-0.1,0.4-0.6,0.8-1,0.8c-0.5,0-6.6,0-6.6,0
			c-0.7,0-1.2,0.5-1.2,1.2v0.8c0,0.7,0.5,1.2,1.2,1.2c0,0,5.2,0,5.7,0s1,0.6,0.9,1.1c-0.1,0.5-0.6,3.4-0.7,3.7
			c-0.1,0.3-0.4,0.8-1,0.8c-0.5,0-4.6,0-4.6,0c-0.8,0-1.1,0.1-1.7,0.8c-0.5,0.7-5.6,6.7-5.6,6.7c0,0.1-0.1,0-0.1,0V4.5
			c0-0.5,0.4-1,1-1c0,0,13.2,0,13.7,0C23.3,3.5,23.7,4,23.6,4.6z"/>
	</symbol>
	<symbol id="github-icon">
		<path d="M16,0.3c-8.8,0-16,7.2-16,16c0,7.1,4.6,13.1,10.9,15.2c0.8,0.1,1.1-0.3,1.1-0.8c0-0.4,0-1.4,0-2.7c-4.5,1-5.4-2.1-5.4-2.1
			c-0.7-1.8-1.8-2.3-1.8-2.3c-1.5-1,0.1-1,0.1-1c1.6,0.1,2.5,1.6,2.5,1.6c1.4,2.4,3.7,1.7,4.7,1.3c0.1-1,0.6-1.7,1-2.1
			c-3.6-0.4-7.3-1.8-7.3-7.9c0-1.7,0.6-3.2,1.6-4.3c-0.2-0.4-0.7-2,0.2-4.2c0,0,1.3-0.4,4.4,1.6c1.3-0.4,2.6-0.5,4-0.5
			c1.4,0,2.7,0.2,4,0.5C23.1,6.5,24.4,7,24.4,7c0.9,2.2,0.3,3.8,0.2,4.2c1,1.1,1.6,2.5,1.6,4.3c0,6.1-3.7,7.5-7.3,7.9
			c0.6,0.5,1.1,1.5,1.1,3c0,2.1,0,3.9,0,4.4c0,0.4,0.3,0.9,1.1,0.8C27.4,29.4,32,23.4,32,16.3C32,7.5,24.8,0.3,16,0.3z"/>
	</symbol>
	<symbol id="goodreads-icon">
		<path d="M23.9,29.2C22.2,31,19.6,32,15.9,32c-1.1,0-2.1-0.1-3.2-0.3s-2-0.6-3-1.2c-0.9-0.5-1.6-1.2-2.3-2c-0.5-0.9-0.9-1.8-1-3.1
			h3.8c0,0.6,0.2,1.3,0.6,1.7c0.4,0.4,0.9,0.9,1.4,1.2c0.5,0.3,1.2,0.5,1.8,0.6c0.6,0.1,1.3,0.2,1.9,0.2c1.2,0,2.3-0.2,3.1-0.6
			c0.9-0.4,1.5-1,2.1-1.7c0.5-0.8,1-1.6,1.2-2.7c0.2-1.1,0.3-2.1,0.3-3.4v-1.4h-0.1c-0.6,1.4-1.6,2.5-2.9,3.1c-1.3,0.6-2.7,1-4.1,1
			c-1.7,0-3.1-0.3-4.4-1c-1.3-0.6-2.3-1.4-3.1-2.5s-1.5-2.3-1.9-3.7c-0.4-1.4-0.6-2.8-0.6-4.4c0-1.3,0.2-2.7,0.5-4.1s1-2.7,1.7-3.9
			c0.9-1.2,1.9-2.1,3.2-2.8c1.3-0.8,3-1.1,4.9-1.1c1.4,0,2.7,0.3,4,1c1.2,0.6,2.1,1.6,2.8,2.8l0,0V0.5h3.5v20.6
			C26.4,24.7,25.5,27.4,23.9,29.2z M19.2,19.1c0.9-0.5,1.5-1.2,2-2c0.5-0.9,0.9-1.7,1.2-2.8c0.2-1.1,0.3-2.1,0.3-3.1
			s-0.1-1.9-0.3-2.9c-0.2-1-0.6-1.8-1.1-2.6c-0.5-0.8-1.2-1.4-1.9-1.8c-0.9-0.4-1.8-0.6-3-0.6s-2.3,0.2-3,0.6c-0.9,0.4-1.5,1.1-2,1.8
			s-1,1.6-1.2,2.6c-0.2,1-0.3,2-0.3,3.1c0,1,0.1,2,0.3,3c0.2,1,0.5,1.9,1.1,2.8s1.2,1.5,1.9,2c0.9,0.5,1.8,0.8,3,0.8
			C17.3,20,18.3,19.7,19.2,19.1z"/>
	</symbol>
	<symbol id="google-plus-icon">
		<path d="M10.1,14.5V18h5.8c-0.2,1.5-1.7,4.4-5.8,4.4c-3.5,0-6.3-2.9-6.3-6.4s2.8-6.4,6.3-6.4c2,0,3.3,0.8,4.1,1.6L17,8.5
			c-1.8-1.7-4.1-2.7-6.8-2.7C4.6,5.8,0,10.4,0,16s4.6,10.2,10.2,10.2c5.9,0,9.8-4.1,9.8-9.9c0-0.7-0.1-1.2-0.2-1.7L10.1,14.5
			L10.1,14.5z M29.1,14.5v-2.9h-2.9v2.9h-2.9v2.9h2.9v2.9h2.9v-2.9H32v-2.9L29.1,14.5z"/>
	</symbol>
	<symbol id="houzz-icon">
		<path d="M6.8,26.7l9.2-5.3L6.8,16l9.2-5.3V32l9.2-5.3V5.3L16,10.7V0L6.8,5.3V26.7z"/>
	</symbol>
	<symbol id="imdb-icon">
		<path d="M27.9,4.5H4.1C1.8,4.5,0,6.3,0,8.6v14.8c0,2.3,1.8,4.1,4.1,4.1h23.8c2.3,0,4.1-1.8,4.1-4.1V8.6C32,6.3,30.2,4.5,27.9,4.5z
			 M30,23.4c0,1.2-0.9,2.1-2.1,2.1H4.1c-1.2,0-2.1-0.9-2.1-2.1V8.6c0-1.2,0.9-2.1,2.1-2.1h23.8c1.2,0,2.1,0.9,2.1,2.1V23.4z M4,19.5
			h1.3v-8H4V19.5z M10.3,15.2l-2.1-3.7H6.8v8h1.3v-5.6l2.1,3.7l0,0l2.1-3.7v5.7h1.3v-8h-1.4L10.3,15.2z M17.8,11.5h-2.4v8h2.4
			c2.3,0,3.8-1.6,3.8-4v-0.1C21.5,13.1,20,11.5,17.8,11.5z M20.2,15.5c0,1.7-1,2.8-2.4,2.8h-1.1v-5.6h1.1
			C19.2,12.7,20.2,13.8,20.2,15.5L20.2,15.5z M25.6,13.3c-0.9,0-1.4,0.5-1.8,1.1v-3.2h-1.3v8.3h1.3v-0.9c0.4,0.5,0.9,1,1.8,1
			c1.2,0,2.4-1,2.4-3.1v-0.1C28,14.3,26.9,13.3,25.6,13.3z M26.7,16.5c0,1.2-0.6,1.9-1.4,1.9c-0.8,0-1.4-0.8-1.4-1.9v-0.1
			c0-1.2,0.7-1.9,1.4-1.9C26.1,14.5,26.7,15.2,26.7,16.5L26.7,16.5z"/>
	</symbol>
	<symbol id="instagram-icon">
		<path d="M31.9,9.4c-0.1-1.7-0.3-2.9-0.7-3.8c-0.4-1.1-1-1.9-1.8-2.9c-0.9-0.9-1.8-1.4-2.9-1.8c-1.1-0.4-2.1-0.6-3.8-0.7
			S20.4,0,16,0s-4.9,0-6.6,0.1S6.5,0.4,5.5,0.9c-1.1,0.4-1.9,1-2.9,1.8C1.8,3.5,1.3,4.5,0.9,5.5S0.2,7.7,0.1,9.4C0,11.1,0,11.6,0,16
			s0,4.9,0.1,6.6s0.3,2.9,0.7,3.8c0.4,1.1,1,1.9,1.8,2.9c0.9,0.9,1.8,1.4,2.9,1.8s2.1,0.6,3.8,0.7C11.1,32,11.6,32,16,32
			s4.9,0,6.6-0.1c1.7-0.1,2.9-0.3,3.8-0.7c1.1-0.4,1.9-1,2.9-1.8c1-0.9,1.4-1.8,1.8-2.9c0.4-1.1,0.6-2.1,0.7-3.8
			C32,20.9,32,20.4,32,16S32,11.1,31.9,9.4z M29,22.5c-0.1,1.6-0.3,2.5-0.5,3c-0.3,0.7-0.6,1.3-1.2,1.8s-1.1,1-1.8,1.2
			c-0.5,0.2-1.4,0.5-3,0.5c-1.7,0.1-2.2,0.1-6.5,0.1s-4.8,0-6.5-0.1c-1.6-0.1-2.5-0.3-3-0.5c-0.7-0.3-1.3-0.6-1.8-1.2
			s-0.9-1.1-1.2-1.8c-0.2-0.5-0.4-1.4-0.5-3c-0.1-1.7-0.1-2.2-0.1-6.5s0-4.8,0.1-6.5c0.1-1.6,0.3-2.5,0.5-3c0.3-0.7,0.6-1.3,1.2-1.8
			s1.1-0.9,1.8-1.2C7,3.3,7.9,3,9.5,3c1.7-0.1,2.2-0.1,6.5-0.1s4.8,0,6.5,0.1c1.6,0.1,2.5,0.3,3,0.5c0.7,0.3,1.3,0.6,1.8,1.2
			s1,1.1,1.2,1.8c0.2,0.5,0.4,1.4,0.5,3c0.1,1.7,0.1,2.2,0.1,6.5S29.1,20.8,29,22.5z M16,7.8c-4.6,0-8.2,3.6-8.2,8.2s3.6,8.2,8.2,8.2
			s8.2-3.6,8.2-8.2S20.6,7.8,16,7.8z M16,21.3c-3,0-5.3-2.3-5.3-5.3s2.3-5.3,5.3-5.3s5.3,2.3,5.3,5.3S19,21.3,16,21.3z M24.5,5.5
			c-1.1,0-1.9,0.9-1.9,1.9s0.9,1.9,1.9,1.9c1.1,0,1.9-0.9,1.9-1.9S25.6,5.5,24.5,5.5z"/>
	</symbol>
	<symbol id="itunes-icon">
		<path d="M28.6,12.5c0,3.7,0,7.5,0,11.2c0,0.9-0.1,1.6-0.4,2.4c-0.5,1.2-1.5,1.9-2.7,2.2c-0.6,0.2-1.4,0.3-2.1,0.3
			c-1.8,0.1-3.5-1.2-3.9-3c-0.3-1.5,0.4-3.2,2-4c0.6-0.3,1.3-0.5,2-0.6c0.7-0.1,1.5-0.3,2.2-0.4c0.5-0.1,0.9-0.4,1-1
			c0-0.1,0-0.2,0-0.4c0-3.5,0-7.2,0-10.7c0-0.1,0-0.2,0-0.3c-0.1-0.3-0.3-0.4-0.6-0.4s-0.6,0.1-1,0.1c-1.5,0.3-3,0.6-4.5,0.9
			c-1.5,0.3-3.1,0.6-4.6,1c-0.9,0.2-1.8,0.3-2.7,0.5h-0.1c-0.5,0.1-0.7,0.4-0.7,1c0,0.1,0,0.2,0,0.2c0,5.1,0,10.3,0,15.3
			c0,0.9-0.1,1.6-0.4,2.5c-0.5,1.3-1.5,2-2.8,2.5C8.7,31.9,8,32,7.2,32c-1.9,0.1-3.4-1.2-3.7-3c-0.3-1.6,0.4-3.3,2.2-4.1
			c0.7-0.3,1.4-0.4,2.1-0.6C8.4,24.2,9,24.1,9.6,24c0.7-0.2,1.2-0.6,1.2-1.4c0-0.1,0-0.2,0-0.3c0-5.8,0-11.7,0-17.4
			c0-0.2,0-0.5,0.1-0.7C11,3.5,11.4,3.2,11.9,3c0.5-0.1,1-0.2,1.5-0.3c1.4-0.3,2.9-0.5,4.3-0.9c1.5-0.3,3-0.6,4.5-0.9
			c1.3-0.2,2.7-0.5,4-0.7C26.6,0.1,27,0,27.4,0c0.6,0,1.1,0.3,1.1,1c0,0.1,0,0.3,0,0.4C28.6,5,28.6,8.8,28.6,12.5L28.6,12.5z"/>
	</symbol>
	<symbol id="linkedin-icon">
		<path d="M0.6,30.6h6.6V11H0.6L0.6,30.6z M23.9,10.3c-2.9,0-4.6,1.1-6.4,3.3v-2.7H11v19.6h6.5V19.9c0-2.3,1.1-4.4,3.8-4.4
			s4.1,2.2,4.1,4.4v10.7H32V19.4C32,11.7,26.8,10.3,23.9,10.3z M3.8,1.4C1.7,1.4,0,2.9,0,4.8s1.7,3.5,3.8,3.5s3.8-1.6,3.8-3.4
			S6,1.4,3.8,1.4z"/>
	</symbol>
	<symbol id="medium-icon">
		<path d="M31.7,7.5C31.7,7.4,31.7,7.4,31.7,7.5L31.7,7.5L22,2.7c-0.1,0-0.1-0.1-0.2-0.1c-0.1,0-0.2,0-0.2,0c-0.3,0-0.7,0.2-1,0.5
			l-5.5,9l7,11.2l9.6-15.7C31.8,7.5,31.8,7.5,31.7,7.5z M12.1,20.2l9.1,4.6L12.1,10L12.1,20.2z M22.7,25.4l7.5,3.7
			c1,0.5,1.8,0.1,1.8-0.7v-18L22.7,25.4z M10.5,7.5L1.2,2.8C1,2.7,0.8,2.7,0.7,2.7C0.3,2.7,0,3,0,3.5v20.2c0,0.5,0.4,1.2,0.8,1.4
			l8.3,4.1c0.2,0.1,0.4,0.1,0.6,0.1c0.5,0,0.8-0.4,0.8-1.1L10.5,7.5C10.6,7.5,10.6,7.5,10.5,7.5z"/>
	</symbol>
	<symbol id="meetup-icon">
		<path d="M13.8,18.6c0-6.7,2-12.7,3.7-16.3c0.5-1.2,1-1.5,2-1.5c1.4,0,3.1,0.2,4.4,0.4c1.2,0.2,1.6,1.7,1.8,2.7
			c1.3,4.8,5,20,5.9,23.9c0.2,0.9,0.6,2.1,0.1,2.5c-0.4,0.2-2.7,1-4.2,1.1c-0.6,0.1-1.2-0.6-1.5-1.6c-1.6-4.9-3.7-12.6-5.6-17.7
			c0,4-0.3,11.5-0.4,12.8c-0.1,1.8-0.4,4-1.9,4.2c-1.2,0.2-2.6,0.4-4.3,0.4c-1.4,0-1.9-1-2.6-1.9C10.3,25.9,8,22.3,7,20.1
			c0.3,2.5,0.7,5,1,6.2c0.1,0.9,0,1.6-0.6,2c-1.1,0.7-3.4,1.5-4.4,1.5c-0.9,0-1.6-0.9-1.7-1.7C0.4,24.4-0.1,19.5,0,16.2
			c0-3,0-6.3,0.2-8.9c0-0.7,0.3-1.2,1-1.5c1.3-0.5,3.2-0.6,5-0.3C7.1,5.6,7.3,6.4,7.7,7C9.6,10.1,11.8,14.4,13.8,18.6z"/>
	</symbol>
	<symbol id="messenger-icon">
		<path d="M16,0C7.2,0,0.1,6.6,0.1,14.8c0,4.6,2.4,8.7,6,11.5V32l5.5-3c1.4,0.4,3,0.6,4.5,0.6c8.8,0,15.9-6.6,15.9-14.8S24.8,0,16,0z
			 M17.5,19.9l-4-4.3l-7.9,4.3l8.7-9.3l4.1,4.3l7.8-4.3L17.5,19.9z"/>
	</symbol>
	<symbol id="ok-icon">
		<path class="st0" d="M16,16.5c4.6,0,8.3-3.7,8.3-8.3C24.3,3.7,20.6,0,16,0c-4.6,0-8.3,3.7-8.3,8.3C7.7,12.8,11.4,16.5,16,16.5z
		 M16,4.8c1.9,0,3.4,1.5,3.4,3.4c0,1.9-1.5,3.4-3.4,3.4c-1.9,0-3.4-1.5-3.4-3.4C12.6,6.4,14.1,4.8,16,4.8z"/>
		<path d="M19.3,23.3c1.7-0.4,3.3-1,4.8-2c1.1-0.7,1.5-2.2,0.8-3.3c-0.7-1.1-2.2-1.5-3.3-0.8c-3.4,2.1-7.7,2.1-11.1,0
			c-1.1-0.7-2.6-0.4-3.3,0.8c-0.7,1.1-0.4,2.6,0.8,3.3c1.5,0.9,3.1,1.6,4.8,2L8,27.9c-1,0.9-1,2.5,0,3.4C8.5,31.8,9.1,32,9.7,32
			s1.2-0.2,1.7-0.7l4.6-4.5l4.5,4.5c0.9,0.9,2.5,0.9,3.4,0c0.9-0.9,0.9-2.5,0-3.4L19.3,23.3z"/>
	</symbol>
	<symbol id="paypal-icon">
		<path d="M9.2,32H5.1c-0.9,0-1.4-0.7-1.2-1.6L4,29.5h2.8c0.9,0,1.8-0.7,2-1.6l1.4-6.1c0.2-0.9,1.1-1.6,2-1.6h1.2c5.1,0,9-1,11.8-3.1
			s4.2-4.8,4.2-8.2c0-1.5-0.3-2.7-0.8-3.7c0,0,0,0,0-0.1l0.2,0.1c1,0.6,1.8,1.4,2.3,2.4c0.5,1,0.8,2.2,0.8,3.7c0,3.4-1.4,6.1-4.2,8.2
			c-2.8,2.1-6.7,3.1-11.8,3.1h-1.2c-0.9,0-1.8,0.7-2,1.6l-1.4,6.1C11,31.3,10.1,32,9.2,32L9.2,32z M5.6,28.4H1.5
			c-0.9,0-1.4-0.7-1.2-1.6L6.1,1.6C6.3,0.7,7.2,0,8.1,0h8.6c1.9,0,3.5,0.1,4.9,0.4c1.4,0.3,2.6,0.7,3.6,1.3c1,0.6,1.8,1.4,2.3,2.4
			c0.5,1,0.8,2.2,0.8,3.7c0,3.4-1.4,6.1-4.2,8.2c-2.8,2.1-6.7,3.1-11.8,3.1H11c-0.9,0-1.8,0.7-2,1.6l-1.4,6.1
			C7.4,27.7,6.5,28.4,5.6,28.4L5.6,28.4z M15.6,5.2h-1.4c-0.9,0-1.8,0.7-2,1.6L11,12.2c-0.2,0.9,0.4,1.6,1.2,1.6h1
			c2.2,0,4-0.5,5.2-1.4c1.2-0.9,1.9-2.2,1.9-3.9c0-1.1-0.4-1.9-1.2-2.5C18.3,5.5,17.1,5.2,15.6,5.2L15.6,5.2z"/>
	</symbol>
	<symbol id="pinterest-icon">
		<path d="M16,0.3C7.3,0.3,0.3,7.3,0.3,16c0,6.7,4.1,12.4,10,14.7c-0.1-1.2-0.3-3.2,0.1-4.5c0.3-1.2,1.8-7.8,1.8-7.8
		s-0.5-0.9-0.5-2.3c0-2.2,1.3-3.8,2.8-3.8c1.3,0,2,1,2,2.2c0,1.4-0.9,3.4-1.3,5.2c-0.4,1.6,0.8,2.8,2.3,2.8c2.8,0,4.9-2.9,4.9-7.2
		c0-3.8-2.7-6.4-6.6-6.4c-4.5,0-7.1,3.4-7.1,6.8c0,1.4,0.5,2.8,1.2,3.6c0.1,0.2,0.1,0.3,0.1,0.5c-0.1,0.5-0.4,1.6-0.4,1.8
		c-0.1,0.3-0.2,0.4-0.5,0.2c-2-0.9-3.2-3.8-3.2-6.1c0-5,3.6-9.5,10.4-9.5c5.5,0,9.7,3.9,9.7,9.1c0,5.4-3.4,9.8-8.2,9.8
		c-1.6,0-3.1-0.8-3.6-1.8l-1,3.7c-0.4,1.4-1.3,3.1-2,4.1c1.5,0.5,3,0.7,4.7,0.7c8.7,0,15.7-7,15.7-15.7S24.7,0.3,16,0.3L16,0.3z"/>
	</symbol>
	<symbol id="google-play-icon">
		<path d="M3.6,32l18.8-10.3l-4.2-4.2L3.6,32z M1,0.2C0.9,0.6,0.8,0.8,0.8,1.3v29.4c0,0.5,0.1,0.7,0.2,1.1l15.7-15.7L1,0.2z
			 M30.2,14.7l-5.9-3.3l-4.7,4.7l4.7,4.7l5.9-3.3C31.6,16.6,31.6,15.4,30.2,14.7z M22.3,10.3L3.7,0l14.4,14.4L22.3,10.3z"/>
	</symbol>
	<symbol id="pocket-icon">
		<path d="M29.1,1.7c0.8,0,1.5,0.3,2.1,0.8C31.7,3.1,32,3.8,32,4.6v9.7c0,2.2-0.4,4.3-1.2,6.2c-0.8,2-2,3.6-3.4,5.1
			c-1.5,1.5-3.1,2.6-5.1,3.4c-2,0.8-4.1,1.2-6.2,1.2s-4.3-0.4-6.2-1.2c-2-0.8-3.6-2-5.1-3.4c-1.5-1.5-2.6-3.1-3.4-5.1S0,16.5,0,14.3
			V4.6c0-0.8,0.3-1.5,0.8-2.1C1.4,2,2.1,1.7,2.9,1.7H29.1L29.1,1.7z M16,21.5c0.6,0,1-0.2,1.6-0.6l7.5-7.2c0.4-0.4,0.7-0.9,0.7-1.6
			s-0.2-1.1-0.6-1.6c-0.4-0.4-0.9-0.6-1.6-0.6s-1,0.2-1.6,0.6l-6,5.7l-6-5.7C9.6,10.1,9,9.9,8.5,9.9c-0.6,0-1.1,0.2-1.6,0.6
			c-0.4,0.4-0.6,0.9-0.6,1.6s0.2,1.1,0.6,1.6l7.5,7.2C15,21.2,15.4,21.5,16,21.5z"/>
	</symbol>
	<symbol id="rdio-icon">
		<path d="M31.2,8.8c-3.7,0.1-8.1-2.7-9.9-3.9c-0.1-0.1-0.3-0.2-0.5-0.2c-0.2-0.1-0.3-0.2-0.6-0.3V15l0,0c0,0.9-0.2,1.9-0.9,3v0.1
			c-1.7,2.7-5.4,4.5-8.8,3.3c-3.3-1.1-4.2-4.3-2.4-7.2v-0.1c1.7-2.7,5.4-4.5,8.8-3.3c0.2,0.1,0.5,0.2,0.7,0.3V3.3
			c-1.3-0.3-2.5-0.6-3.9-0.6C5.8,2.7,0,8.7,0,16v0.1c0,7.3,5.8,13.1,13.7,13.1S27.4,23.3,27.4,16v-0.1c0-0.6,0-1.1-0.1-1.7
			C31.4,13.1,33.1,8.9,31.2,8.8z"/>
	</symbol>
	<symbol id="reddit-icon">
		<path d="M31.8,15.6c0-2.1-1.7-3.8-3.8-3.8c-0.9,0-1.7,0.3-2.4,0.9c-2.3-1.4-5.2-2.4-8.5-2.5l1.7-5.3l4.6,1.1c0.1,1.6,1.5,3,3.2,3
			c1.8,0,3.2-1.4,3.2-3.2c0-1.8-1.4-3.2-3.2-3.2c-1.2,0-2.3,0.7-2.8,1.7l-5.3-1.2c-0.4-0.1-0.9,0.1-1,0.6l-2.1,6.5
			c-3.5,0.1-6.7,1-9.1,2.6c-0.7-0.5-1.5-0.9-2.4-0.9c-2.1,0-3.8,1.7-3.8,3.8c0,1.3,0.7,2.5,1.7,3.1c0,0.3-0.1,0.6-0.1,0.9
			c0,5.3,6.4,9.6,14.2,9.6s14.2-4.3,14.2-9.6c0-0.3,0-0.6-0.1-0.9C31.3,18.1,31.8,17,31.8,15.6z M26.8,4.3c0.8,0,1.5,0.7,1.5,1.5
			s-0.7,1.5-1.5,1.5s-1.5-0.7-1.5-1.5C25.3,4.9,25.8,4.3,26.8,4.3z M1.8,15.6c0-1.2,0.9-2.1,2.1-2.1c0.3,0,0.6,0.1,0.9,0.2
			c-1.1,0.9-2,2-2.5,3.2C2.3,16.6,1.8,16.1,1.8,15.6z M16,27.5c-6.9,0-12.5-3.5-12.5-7.9s5.6-7.9,12.5-7.9s12.5,3.5,12.5,7.9
			S23,27.5,16,27.5z M29.8,17c-0.5-1.2-1.4-2.3-2.5-3.2c0.3-0.1,0.6-0.2,0.9-0.2c1.2,0,2.1,0.9,2.1,2.1C30.3,16.1,30,16.6,29.8,17z
			 M13.4,18c0-1.2-1-2.1-2.1-2.1S9.2,17,9.2,18s1,2.2,2.1,2.2S13.4,19.1,13.4,18z M20.8,15.8c-1.2,0-2.1,1-2.1,2.1s1,2.2,2.1,2.2
			c1.2,0,2.1-1,2.1-2.2S22,15.8,20.8,15.8z M20,23.1c-0.8,0.8-2.1,1.1-4,1.1s-3.2-0.4-4-1.1c-0.3-0.3-0.9-0.3-1.2,0s-0.3,0.9,0,1.2
			c1.2,1.2,2.9,1.7,5.2,1.7s4.1-0.5,5.2-1.6c0.3-0.3,0.3-0.9,0-1.2C21,22.8,20.3,22.8,20,23.1z"/>
	</symbol>
	<symbol id="rss-icon">
		<path d="M4.9,22.2c-2.7,0-4.9,2.2-4.9,4.9S2.2,32,4.9,32s4.9-2.2,4.9-4.9S7.6,22.2,4.9,22.2z M3.7,0C2.3,0,1.2,1.1,1.2,2.5
			s1.1,2.5,2.5,2.5c12.9,0,23.4,10.5,23.4,23.4c0,1.4,1.1,2.5,2.5,2.5s2.5-1.1,2.5-2.5C32,12.7,19.3,0,3.7,0z M3.7,11.1
			c-1.4,0-2.5,1.1-2.5,2.5S2.3,16,3.7,16C10.5,16,16,21.5,16,28.3c0,1.4,1.1,2.5,2.5,2.5s2.5-1.1,2.5-2.5
			C20.9,18.8,13.2,11.1,3.7,11.1z"/>
	</symbol>
	<symbol id="skype-icon">
		<path d="M16.1,25.2c-5.4,0-7.8-2.6-7.8-4.6c0-1,0.7-1.7,1.8-1.7c2.3,0,1.7,3.3,6,3.3c2.2,0,3.4-1.2,3.4-2.4c0-0.7-0.4-1.5-1.8-1.9
			l-4.8-1.2c-3.8-1-4.5-3-4.5-5c0-4.1,3.8-5.6,7.4-5.6c3.3,0,7.2,1.8,7.2,4.3c0,1-0.9,1.7-1.9,1.7c-2,0-1.6-2.7-5.6-2.7
			c-2,0-3.1,0.9-3.1,2.2s1.5,1.7,2.9,2l3.5,0.8c3.9,0.9,4.8,3.1,4.8,5.3C23.6,22.7,21.1,25.2,16.1,25.2 M30.8,18.7l0,0.2l-0.1-0.3
			C30.7,18.6,30.8,18.6,30.8,18.7c0.1-0.9,0.2-1.8,0.2-2.7c0-2-0.4-4-1.2-5.9c-0.8-1.8-1.9-3.4-3.2-4.8c-1.4-1.4-3-2.5-4.8-3.2
			C20,1.2,18.1,0.8,16,0.8c-1,0-1.9,0.1-2.9,0.3l0.2,0.1l-0.3,0l0.2,0C11.9,0.4,10.4,0,9,0C6.6,0,4.3,0.9,2.7,2.6S0,6.6,0,9
			c0,1.5,0.4,3,1.1,4.3l0-0.2l0.1,0.3l-0.1-0.2C1,14.2,0.9,15,0.9,15.9c0,2,0.4,4,1.2,5.9c0.8,1.8,1.8,3.4,3.2,4.8
			c1.4,1.4,3,2.5,4.8,3.3c1.9,0.8,3.8,1.2,5.9,1.2c0.9,0,1.8-0.1,2.6-0.2l-0.2-0.1l0.3,0.1l-0.2,0C20,31.6,21.5,32,23,32
			c2.4,0,4.6-0.9,6.3-2.6c1.7-1.7,2.6-3.9,2.6-6.3C32,21.5,31.6,20,30.8,18.7"/>
	</symbol>
	<symbol id="slack-icon">
		<path d="M29.2,14.9c0.8,0,1.5,0.3,2,0.8c0.5,0.5,0.8,1.2,0.8,2c0,1.2-0.6,2.1-1.8,2.5l-3.3,1.1l1.1,3.2c0.1,0.3,0.1,0.6,0.1,0.9
			c0,0.8-0.3,1.4-0.8,2c-0.5,0.6-1.2,0.8-1.9,0.8c-0.6,0-1.2-0.2-1.6-0.5c-0.5-0.3-0.8-0.8-1-1.4l-1.1-3.2l-6,2l1.1,3.2
			c0.1,0.3,0.2,0.6,0.2,0.9c0,0.8-0.3,1.4-0.8,2c-0.5,0.6-1.2,0.8-2,0.8c-0.6,0-1.1-0.2-1.6-0.5s-0.8-0.8-1-1.4L10.4,27l-2.9,1
			c-0.4,0.1-0.7,0.2-1,0.2c-0.8,0-1.4-0.3-2-0.8c-0.5-0.5-0.8-1.2-0.8-1.9c0-0.6,0.2-1.1,0.5-1.6c0.4-0.5,0.8-0.8,1.4-1l3-1l-2-6
			l-3,1c-0.3,0.1-0.6,0.2-0.9,0.2c-0.8,0-1.4-0.3-1.9-0.8C0.3,15.6,0,15,0,14.2c0-0.6,0.2-1.1,0.5-1.6c0.4-0.5,0.8-0.8,1.4-1l3-1
			l-1-3.1C3.8,7.2,3.8,6.9,3.8,6.6c0-0.8,0.3-1.4,0.8-2s1.2-0.8,2-0.8c0.6,0,1.1,0.2,1.6,0.5s0.8,0.8,1,1.4l1,3.1l6-2l-1-3.1
			C15,3.4,15,3.1,15,2.8c0-0.8,0.3-1.4,0.8-2S17,0,17.8,0c0.6,0,1.2,0.2,1.6,0.5c0.5,0.4,0.8,0.8,1,1.4l1,3.1l3.1-1.1
			c0.3-0.1,0.5-0.1,0.8-0.1c0.8,0,1.4,0.3,2,0.8s0.8,1.1,0.8,1.9c0,0.6-0.2,1.1-0.6,1.6c-0.4,0.5-0.9,0.8-1.4,1l-3,1l2,6.1l3.2-1.1
			C28.6,15,28.9,14.9,29.2,14.9L29.2,14.9z M13.9,20l6-2l-2-6.1l-6,2.1L13.9,20z"/>
	</symbol>
	<symbol id="smugmug-icon">
		<path d="M9,6.3c3,0,4.4-1.8,4.2-3.3C13,1.7,11.7,0.4,9.3,0.4c-2,0-3.3,1.5-3.5,3C5.6,4.9,6.5,6.4,9,6.3z M23.7,6
			c2.8-0.1,4.1-1.6,4.1-3c0-1.6-1.5-3.2-4.1-3c-2,0.2-3.2,1.6-3.4,3C20.1,4.6,21.2,6.1,23.7,6z M25.5,12.3c-7,0.7-7.4,0.7-20.3,1.1
			C-0.2,13.3,1,32,12.6,32C23.7,32,37,11.1,25.5,12.3z M12.8,28.7c-10.1,0-8.7-12-7-12.2c11.8-0.4,14.8-1,19-1
			C29.1,15.6,20.9,28.7,12.8,28.7z"/>
	</symbol>
	<symbol id="snapchat-icon">
		<path d="M16.4,0.8L16.4,0.8L16.4,0.8L16.4,0.8c-0.1,0-0.6,0-0.6,0c-1.3,0-5.8,0.4-7.9,5.1c-0.7,1.6-0.5,4.3-0.4,6.5
			c0,0.3,0,0.5,0,0.8c-0.1,0.1-0.3,0.1-0.6,0.1c-0.4,0-0.9-0.1-1.5-0.4c-0.1-0.1-0.3-0.1-0.5-0.1c-0.7,0-1.4,0.4-1.6,1.1
			c-0.1,0.5,0.1,1.1,1.6,1.7c0.1,0.1,0.3,0.1,0.5,0.2C6,16,6.9,16.4,7.2,17c0.1,0.3,0.1,0.7-0.2,1.2l0,0c-0.1,0.2-2,4.7-6.4,5.4
			C0.3,23.7,0,24,0,24.3c0,0.1,0,0.2,0.1,0.3c0.3,0.8,1.7,1.3,4.2,1.7c0.1,0.1,0.2,0.5,0.2,0.8c0.1,0.2,0.1,0.5,0.2,0.8
			s0.3,0.6,0.8,0.6c0.2,0,0.4,0,0.7-0.1c0.4-0.1,1-0.2,1.7-0.2c0.4,0,0.8,0,1.2,0.1c0.8,0.1,1.5,0.6,2.3,1.2c1.1,0.8,2.4,1.7,4.4,1.7
			c0.1,0,0.1,0,0.2,0s0.1,0,0.2,0c2,0,3.3-0.9,4.4-1.7c0.8-0.6,1.5-1,2.3-1.2c0.4-0.1,0.8-0.1,1.2-0.1c0.7,0,1.2,0.1,1.7,0.2
			c0.3,0.1,0.5,0.1,0.7,0.1l0,0l0,0c0.4,0,0.6-0.2,0.7-0.6c0.1-0.3,0.1-0.5,0.2-0.7c0.1-0.2,0.1-0.6,0.2-0.8c2.5-0.4,3.9-0.9,4.2-1.7
			c0-0.1,0.1-0.2,0.1-0.3c0-0.3-0.2-0.6-0.6-0.7C27,23,25.1,18.5,25,18.3l0,0c-0.2-0.5-0.3-0.9-0.2-1.2c0.3-0.6,1.2-0.9,1.8-1.1
			c0.2-0.1,0.3-0.1,0.5-0.2c1.1-0.4,1.6-1,1.6-1.6c0-0.5-0.4-0.9-1-1.1l0,0c-0.2-0.1-0.4-0.1-0.7-0.1c-0.2,0-0.4,0-0.6,0.1
			c-0.5,0.2-1,0.4-1.4,0.4c-0.3,0-0.4-0.1-0.5-0.1c0-0.2,0-0.4,0-0.7v-0.1c0.1-2.2,0.3-4.9-0.4-6.5C22.2,1.1,17.7,0.8,16.4,0.8
			L16.4,0.8z"/>
	</symbol>
	<symbol id="soundcloud-icon">
		<path d="M27.5,15.1c-0.6,0-1.2,0.1-1.7,0.3c-0.3-4-3.7-7.1-7.7-7.1c-1,0-2,0.2-2.8,0.5C15.1,8.9,15,9,15,9.3v13.8
			c0,0.3,0.2,0.5,0.5,0.5h12.1c2.4,0,4.4-1.9,4.4-4.4C31.8,16.8,29.8,15.1,27.5,15.1z M11.1,10.2c-0.7,0-1.2,0.5-1.2,1.1v11.2
			c0,0.7,0.6,1.2,1.2,1.2c0.7,0,1.2-0.6,1.2-1.2V11.3C12.3,10.7,11.8,10.2,11.1,10.2z M6.2,12.8c-0.7,0-1.2,0.5-1.2,1.1v8.4
			c0,0.7,0.6,1.2,1.2,1.2s1.2-0.6,1.2-1.2V14C7.4,13.3,6.9,12.8,6.2,12.8z M1.2,15.3c-0.7,0-1.2,0.5-1.2,1.1v4.9
			c0,0.7,0.6,1.2,1.2,1.2c0.7,0,1.2-0.6,1.2-1.2v-4.9C2.5,15.8,1.9,15.3,1.2,15.3z"/>
	</symbol>
	<symbol id="spotify-icon">
		<path d="M16,0C7.2,0,0,7.2,0,16s7.2,16,16,16s16-7.2,16-16S24.8,0,16,0 M23.3,23.1c-0.3,0.5-0.9,0.6-1.4,0.3
			c-3.8-2.3-8.5-2.8-14.1-1.5c-0.5,0.1-1.1-0.2-1.2-0.7s0.2-1.1,0.8-1.2c6.1-1.4,11.3-0.8,15.5,1.8C23.5,22,23.6,22.6,23.3,23.1
			 M25.3,18.7c-0.4,0.6-1.1,0.8-1.7,0.4c-4.3-2.6-10.9-3.4-15.9-1.9C7,17.4,6.3,17,6.1,16.4c-0.2-0.7,0.2-1.4,0.8-1.6
			c5.8-1.8,13-0.9,18,2.1C25.5,17.4,25.7,18.1,25.3,18.7 M25.5,14.2c-5.2-3.1-13.7-3.3-18.6-1.9c-0.8,0.2-1.6-0.2-1.9-1
			c-0.2-0.8,0.2-1.6,1-1.9c5.7-1.7,15-1.4,21,2.1c0.7,0.4,0.9,1.3,0.5,2.1C27.1,14.4,26.2,14.6,25.5,14.2"/>
	</symbol>
	<symbol id="stitcher-icon">
		<path d="M0,22.4h3.2V9.6H0V22.4z M5.3,22.4h3.2V9.6H5.3V22.4z M10.7,22.4h10.7V9.6H10.7V22.4z M23.5,27.7h2.1V4.3h-2.1V27.7z
			 M27.7,9.6v12.8H32V9.6H27.7z"/>
	</symbol>
	<symbol id="stumbleupon-icon">
		<path d="M26.4,16.3v4.9c0,0.9-0.8,1.7-1.7,1.7S23,22.1,23,21.2v-4.9l-2.7,1.1l-2.7-1.1v4.9c0,4,3.2,7.2,7.2,7.2s7.2-3.2,7.2-7.2
			v-4.9H26.4z M17.6,12.9l2.7,1.1l2.7-1.1v-2.1c0-4-3.2-7.2-7.2-7.2s-7.2,3.2-7.2,7.2v10.4c0,0.9-0.8,1.7-1.7,1.7s-1.7-0.8-1.7-1.7
			v-4.9H0v4.9c0,4,3.2,7.2,7.2,7.2s7.2-3.2,7.2-7.2V10.8c0-0.9,0.8-1.7,1.7-1.7c0.9,0,1.7,0.8,1.7,1.7L17.6,12.9L17.6,12.9z"/>
	</symbol>
	<symbol id="tidal-icon">
		<polygon points="0,10.7 5.3,16 10.7,10.7 16,16 10.7,21.3 16,26.7 21.3,21.3 16,16 21.3,10.7 26.7,16 32,10.7 26.7,5.3 21.3,10.7 
			16,5.3 10.7,10.7 5.3,5.3 	"/>
	</symbol>
	<symbol id="tumblr-icon">
		<path d="M23.7,25.6c-0.6,0.3-1.7,0.5-2.6,0.5c-2.6,0.1-3.1-1.8-3.1-3.2V13h6.4V8.2H18V0c0,0-4.6,0-4.7,0c-0.1,0-0.2,0.1-0.2,0.2
			C12.8,2.7,11.6,7,6.8,8.9V13H10v10.5c0,3.6,2.7,8.6,9.6,8.5c2.3,0,5-1.1,5.5-1.9L23.7,25.6z"/>
	</symbol>
	<symbol id="twitch-icon">
		<path d="M23.7,8.3H21v8.3h2.7V8.3z M16.1,8.3h-2.7v8.3h2.7V8.3z M2.8,0L0.8,5.6v22.3h7.6V32h4.2l4.2-4.2h6.2l8.3-8.3V0H2.8z
			 M28.6,18l-4.9,4.9h-7.6l-4.2,4.2v-4.2H5.7V2.7h22.9V18z"/>
	</symbol>
	<symbol id="twitter-icon">
		<path d="M32,6.1c-1.2,0.5-2.4,0.9-3.8,1c1.4-0.8,2.4-2.1,2.9-3.6c-1.3,0.8-2.7,1.3-4.2,1.6C25.7,3.8,24,3,22.2,3
			c-3.6,0-6.6,2.9-6.6,6.6c0,0.5,0.1,1,0.2,1.5C10.3,10.8,5.5,8.2,2.3,4.2c-0.6,1-0.9,2.1-0.9,3.3c0,2.3,1.2,4.3,2.9,5.5
			c-1.1,0-2.1-0.3-3-0.8v0.1c0,3.2,2.3,5.8,5.3,6.4c-0.6,0.1-1.1,0.2-1.7,0.2c-0.4,0-0.8,0-1.2-0.1c0.8,2.6,3.3,4.5,6.1,4.6
			c-2.2,1.8-5.1,2.8-8.2,2.8c-0.5,0-1.1,0-1.6-0.1C2.9,28,6.4,29,10.1,29c12.1,0,18.7-10,18.7-18.7c0-0.3,0-0.6,0-0.8
			C30,8.5,31.1,7.4,32,6.1z"/>
	</symbol>
	<symbol id="vevo-icon">
		<path d="M26.3,2.3c-5.1,0-6.2,3.1-7.8,5.3c0,0-4.2,6.4-5.8,8.8L9.3,2.3H0l5.8,23.5c1.3,4.2,4.7,3.9,4.7,3.9c2.4,0,4.1-1.3,5.7-3.5
			L32,2.3C32,2.3,26.5,2.3,26.3,2.3z"/>
	</symbol>
	<symbol id="vimeo-icon">
		<path d="M32,8.5c-0.1,3.1-2.3,7.4-6.5,12.8c-4.4,5.7-8,8.5-11.1,8.5c-1.8,0-3.4-1.7-4.7-5.1c-0.9-3.2-1.7-6.3-2.6-9.5
			c-1-3.4-2-5.1-3.1-5.1c-0.2,0-1.1,0.5-2.6,1.5L0,9.6c1.6-1.4,3.1-2.8,4.7-4.2c2.1-1.8,3.7-2.8,4.7-2.9C11.8,2.3,13.4,4,14,7.6
			c0.6,3.9,1.1,6.4,1.3,7.4c0.7,3.3,1.5,4.9,2.3,4.9c0.6,0,1.7-1.1,3-3.2c1.4-2.1,2-3.7,2.1-4.8c0.2-1.8-0.5-2.8-2.1-2.8
			c-0.7,0-1.6,0.2-2.3,0.5c1.6-5.1,4.6-7.7,9-7.5C30.6,2.2,32.2,4.3,32,8.5z"/>
	</symbol>
	<symbol id="vine-icon">
		<path d="M30,15.9c-0.9,0.2-1.6,0.3-2.3,0.3c-4.1,0-7.2-2.8-7.2-7.7c0-2.5,1-3.6,2.2-3.6c1.3,0,2.1,1.2,2.1,3.4
			c0,1.3-0.3,2.7-0.6,3.5c0,0,1.3,2.1,4.7,1.5c0.7-1.6,1.1-3.7,1.1-5.6C30,2.9,27.6,0,23,0c-4.7,0-7.5,3.6-7.5,8.4
			c0,4.7,2.2,8.8,5.9,10.7c-1.5,3.1-3.5,5.8-5.6,7.8c-3.7-4.5-7-10.5-8.4-22.1H2c2.6,19.3,10,25.5,12,26.7c1.2,0.6,2.1,0.6,3.1,0.1
			c1.6-1,6.4-5.8,9.2-11.4c1.2,0,2.5-0.1,3.8-0.4L30,15.9z"/>
	</symbol>
	<symbol id="vsco-icon">
		<path d="M16,0C7.2,0,0,7.2,0,16s7.2,16,16,16s16-7.2,16-16S24.8,0,16,0z M30.1,16c0,0.9-0.1,1.8-0.3,2.7l-3.7-1
			c0.1-0.6,0.2-1.2,0.2-1.8s-0.1-1.2-0.2-1.8l3.7-1C30,14.2,30.1,15.1,30.1,16z M1.9,16c0-0.9,0.1-1.8,0.3-2.7l3.7,1
			c-0.1,0.6-0.2,1.2-0.2,1.8s0.1,1.2,0.2,1.8l-3.7,1C2,17.8,1.9,16.9,1.9,16z M9.4,8L6.7,5.3c1.4-1.2,3-2.1,4.7-2.7l1,3.6
			C11.3,6.7,10.3,7.3,9.4,8z M8,9.4c-0.7,0.9-1.3,1.9-1.8,3l-3.6-1C3.2,9.6,4.1,8,5.3,6.7L8,9.4z M6.3,19.6c0.4,1.1,1,2.1,1.8,3
			l-2.7,2.7c-1.2-1.4-2.1-3-2.7-4.7L6.3,19.6z M9.4,24c0.9,0.7,1.9,1.3,3,1.8l-1,3.6c-1.8-0.6-3.4-1.5-4.7-2.7L9.4,24z M7.5,16
			c0-4.7,3.8-8.5,8.5-8.5s8.5,3.8,8.5,8.5s-3.8,8.5-8.5,8.5S7.5,20.7,7.5,16z M24,9.4l2.7-2.7c1.2,1.4,2.1,3,2.7,4.7l-3.6,1
			C25.3,11.3,24.7,10.3,24,9.4z M22.6,8c-0.9-0.7-1.9-1.3-3-1.8l1-3.6c1.8,0.6,3.4,1.5,4.7,2.7L22.6,8z M22.6,24l2.7,2.7
			c-1.4,1.2-3,2.1-4.7,2.7l-1-3.6C20.7,25.3,21.7,24.7,22.6,24z M23.9,22.6c0.7-0.9,1.3-1.9,1.8-3l3.6,1c-0.6,1.8-1.5,3.4-2.7,4.7
			L23.9,22.6z M18.7,2.2l-1,3.7c-0.6-0.1-1.2-0.2-1.8-0.2s-1.2,0.1-1.8,0.2l-1-3.7C14,2,14.9,1.9,15.8,1.9C16.9,1.9,17.9,2,18.7,2.2z
			 M13.3,29.8l1-3.7c0.6,0.1,1.2,0.2,1.8,0.2s1.2-0.1,1.8-0.2l1,3.7c-0.9,0.2-1.8,0.3-2.7,0.3S14.1,30,13.3,29.8z"/>
	</symbol>
	<symbol id="vk-icon">
		<path d="M15.7,25.1h1.9c0,0,0.6,0,0.9-0.4c0.3-0.3,0.3-0.9,0.3-0.9s-0.1-2.5,1.1-2.9c1.1-0.4,2.6,2.5,4.3,3.6
			c1,0.7,2.1,0.6,2.1,0.6s3.9,0,4.3,0c0.4,0,2.1-0.3,1.2-1.9c-0.1-0.1-0.6-1.3-3.2-3.7c-2.7-2.5-2.3-2.1,0.9-6.4
			c2-2.6,2.7-4.2,2.5-4.9c-0.1-0.6-1.7-0.5-1.7-0.5h-4.8c0,0-0.3,0-0.6,0.1c-0.3,0.1-0.4,0.5-0.4,0.5s-0.8,2-1.8,3.8
			c-2.2,3.6-3,3.9-3.4,3.6c-0.8-0.6-0.6-2.1-0.6-3.3c0-3.6,0.6-5-1-5.4c-0.5-0.2-0.9-0.2-2.3-0.2c-1.7,0-3.2,0-4,0.4
			c-0.6,0.3-1,0.9-0.7,0.9c0.3,0.1,1.1,0.2,1.4,0.7c0.5,0.6,0.5,2.2,0.5,2.2s0.3,4.1-0.7,4.6c-0.6,0.4-1.5-0.4-3.4-3.6
			c-1-1.7-1.7-3.6-1.7-3.6S6.7,8.1,6.4,8C6,7.7,5.6,7.7,5.6,7.7H1c0,0-0.7,0-0.9,0.4c-0.2,0.4,0,0.8,0,0.8s3.6,8.4,7.6,12.6
			C11.5,25.4,15.7,25.1,15.7,25.1L15.7,25.1z"/>
	</symbol>
	<symbol id="weibo-icon">
		<path d="M12.1,22.9c0.5-0.8,0.2-1.8-0.6-2.1c-0.8-0.3-1.9,0-2.4,0.8c-0.5,0.8-0.3,1.7,0.5,2.1
		C10.4,24.1,11.5,23.7,12.1,22.9L12.1,22.9z M13.7,20.8c0.2-0.3,0.1-0.7-0.3-0.8c-0.3-0.1-0.7,0-0.9,0.3c-0.2,0.3-0.1,0.7,0.2,0.8
		C13.1,21.2,13.6,21.1,13.7,20.8z M16.8,22.7c-1.1,2.4-4.2,3.7-6.8,2.9c-2.6-0.8-3.6-3.3-2.5-5.6c1.1-2.2,3.9-3.5,6.5-2.8
		C16.6,17.8,17.9,20.3,16.8,22.7z M22.4,19.8c-0.3-3.5-4.9-5.9-10.2-5.4c-5.3,0.5-9.3,3.8-9,7.3s4.9,5.9,10.2,5.4
		C18.7,26.5,22.7,23.3,22.4,19.8z M27.9,19.9c0,4-5.8,9.1-14.5,9.1C6.8,29,0,25.7,0,20.4c0-2.8,1.7-6,4.8-9c4-4,8.7-5.9,10.5-4.1
		c0.8,0.8,0.9,2.1,0.4,3.7c-0.3,0.8,0.8,0.4,0.8,0.4c3.3-1.4,6.1-1.4,7.1,0c0.6,0.8,0.5,1.9,0,3.2c-0.2,0.6,0.1,0.7,0.5,0.8
		C25.9,16.1,27.9,17.5,27.9,19.9L27.9,19.9z M26.6,8.7c1,1.1,1.3,2.7,0.9,4c-0.2,0.6-0.8,0.9-1.3,0.7s-0.9-0.8-0.7-1.3l0,0
		c0.2-0.7,0.1-1.4-0.4-2c-0.5-0.6-1.2-0.8-1.9-0.6l0,0c-0.6,0.1-1.1-0.2-1.3-0.8c-0.1-0.6,0.2-1.1,0.8-1.3
		C24.1,7.2,25.6,7.6,26.6,8.7L26.6,8.7z M29.8,5.8c2.1,2.3,2.7,5.5,1.8,8.3l0,0c-0.2,0.6-0.9,1-1.5,0.8s-1-0.9-0.8-1.5l0,0
		c0.6-2,0.3-4.3-1.3-5.9c-1.5-1.7-3.7-2.3-5.7-1.9c-0.7,0.1-1.3-0.3-1.5-0.9s0.3-1.3,0.9-1.4l0,0C24.6,2.6,27.7,3.5,29.8,5.8z"/>
	</symbol>
	<symbol id="whatsapp-icon">
		<path d="M23.2,19.1c-0.4-0.2-2.4-1.1-2.7-1.2c-0.4-0.1-0.6-0.2-0.9,0.2c-0.3,0.4-1,1.2-1.2,1.5C18.2,20,18,20,17.5,19.8
			c-0.4-0.2-1.6-0.6-3.2-2c-1.1-1-2-2.4-2.2-2.8c-0.2-0.4,0-0.6,0.2-0.8c0.2-0.2,0.4-0.4,0.6-0.7c0.2-0.2,0.3-0.4,0.4-0.6
			c0.1-0.3,0.1-0.5,0-0.7c-0.1-0.2-0.9-2.2-1.2-2.9c-0.3-0.8-0.6-0.7-0.9-0.7c-0.2,0-0.5,0-0.7,0c-0.3,0-0.7,0.1-1,0.5
			c-0.4,0.4-1.3,1.3-1.3,3.3s1.4,3.8,1.6,4.1c0.2,0.3,2.8,4.2,6.8,6c0.9,0.4,1.6,0.6,2.3,0.8c0.9,0.3,1.9,0.3,2.5,0.2
			c0.7-0.1,2.4-0.9,2.7-1.9c0.3-0.9,0.3-1.7,0.2-1.9C23.9,19.3,23.6,19.2,23.2,19.1 M16,28.9L16,28.9c-2.4,0-4.7-0.6-6.7-1.9
			l-0.5-0.3l-4.9,1.3l1.3-4.8l-0.3-0.5c-1.3-2.1-2.1-4.5-2.1-7c0-7.2,6-13.2,13.2-13.2c3.5,0,6.8,1.3,9.4,3.9
			c2.5,2.5,3.9,5.8,3.9,9.3C29.2,23,23.3,28.9,16,28.9 M27.2,4.6C24.2,1.7,20.2,0,16,0C7.3,0,0.2,7.1,0.2,15.8c0,2.8,0.7,5.5,2.2,7.9
			L0.1,32l8.4-2.2c2.4,1.2,4.9,2,7.6,2l0,0c8.7,0,15.8-7.1,15.8-15.8C31.8,11.6,30.2,7.6,27.2,4.6"/>
	</symbol>
	<symbol id="xing-icon">
		<path d="M24.3,0c-0.7,0-1,0.4-1.2,0.9c0,0-9.9,17.6-10.3,18.2c0,0,6.6,12,6.6,12c0.2,0.4,0.6,0.9,1.3,0.9h4.6
			c0.3,0,0.5-0.1,0.6-0.3c0.1-0.2,0.1-0.5,0-0.7l-6.5-11.9c0,0,0,0,0,0L29.5,1c0.1-0.3,0.1-0.5,0-0.7C29.4,0.1,29.2,0,28.9,0L24.3,0
			L24.3,0z M4.9,6.3c-0.3,0-0.5,0.1-0.6,0.3c-0.1,0.2-0.1,0.5,0,0.7l3.1,5.4c0,0,0,0,0,0l-4.9,8.7c-0.1,0.3-0.1,0.5,0,0.7
			c0.1,0.2,0.3,0.3,0.6,0.3h4.6c0.7,0,1-0.5,1.3-0.9l5-8.8l-3.2-5.5c-0.2-0.4-0.6-0.9-1.3-0.9L4.9,6.3L4.9,6.3z"/>
	</symbol>
	<symbol id="yelp-icon">
		<path d="M12.5,20.4c0.5-0.1,0.9-0.6,0.9-1.2s-0.3-1.2-0.8-1.4L11,17.1c-5.2-2.2-5.4-2.2-5.7-2.2c-0.4,0-0.7,0.2-1,0.6
			c-0.5,0.8-0.7,3.4-0.5,5.2c0.1,0.6,0.2,1,0.3,1.3c0.2,0.4,0.5,0.6,0.9,0.6c0.2,0,0.4,0,5.3-1.6C10.4,21.1,12.5,20.4,12.5,20.4z
			 M15.3,22.4c-0.6-0.2-1.2-0.1-1.6,0.4l-1,1.2c-3.6,4.2-3.8,4.4-3.8,4.7c-0.1,0.1-0.1,0.3-0.1,0.4c0,0.2,0.1,0.4,0.3,0.6
			c0.8,1,4.9,2.5,6.2,2.3c0.4-0.1,0.7-0.3,0.9-0.7c-0.1-0.1-0.1-0.3-0.1-5.4v-2.3C16.2,23.1,15.8,22.6,15.3,22.4z M15.4,0.9
			C15.3,0.5,15,0.1,14.4,0c-1.3-0.3-6.7,1.1-7.8,2.2C6.4,2.5,6.3,2.9,6.4,3.4c0.2,0.3,6.7,10.7,6.7,10.7c0.9,1.6,1.8,1.3,2.1,1.2
			c0.3-0.1,1-0.3,0.9-2.2C16.1,11,15.5,1.4,15.4,0.9z M20.1,18C20.1,18,20,18.1,20.1,18c0.2-0.1,0.7-0.2,1.6-0.4
			c5.5-1.3,5.7-1.3,5.9-1.6c0.3-0.2,0.5-0.6,0.5-1l0,0c-0.1-1.3-2.5-4.9-3.6-5.4c-0.4-0.2-0.8-0.2-1.1,0C23.1,9.8,22.9,10,20,14
			c0,0-1.3,1.8-1.3,1.9c-0.3,0.4-0.3,1,0,1.6C19,17.9,19.5,18.2,20.1,18z M27.9,23.4c-0.2-0.1-0.3-0.2-5.2-1.8c0,0-2.1-0.7-2.2-0.7
			c-0.5-0.2-1.1,0-1.4,0.5c-0.4,0.5-0.5,1.1-0.1,1.7l0.8,1.3c2.9,4.7,3.1,5,3.3,5.2c0.3,0.2,0.7,0.3,1.1,0.1c1.2-0.5,3.8-3.8,4-5.2
			C28.3,24,28.2,23.6,27.9,23.4z"/>
	</symbol>
	<symbol id="youtube-icon">
		<path d="M31.7,9.5c0,0-0.3-2.2-1.3-3.2c-1.2-1.3-2.6-1.3-3.2-1.4C22.7,4.6,16,4.6,16,4.6l0,0c0,0-6.7,0-11.2,0.3
			c-0.6,0.1-2,0.1-3.2,1.4c-1,1-1.3,3.2-1.3,3.2S0,12.1,0,14.8v2.5c0,2.6,0.3,5.2,0.3,5.2s0.3,2.2,1.3,3.2c1.2,1.3,2.8,1.3,3.5,1.4
			C7.7,27.3,16,27.4,16,27.4s6.7,0,11.2-0.3c0.6-0.1,2-0.1,3.2-1.4c1-1,1.3-3.2,1.3-3.2s0.3-2.6,0.3-5.2v-2.5
			C32,12.1,31.7,9.5,31.7,9.5z M12.7,20.1v-9l8.6,4.5L12.7,20.1z"/>
	</symbol>
</svg>
