<svg id="ui-icons" xmlns="http://www.w3.org/2000/svg" version="1.1">

	<symbol id="arrow-left-long-icon" viewBox="0 0 35 10">
		<path d="M0 5l5 5V5.9h30V4.1H5V0"/>
	</symbol>
	<symbol id="arrow-right-long-icon" viewBox="0 0 35 10">
		<path d="M35 5l-5-5v4.1H0v1.8h30V10"/>
	</symbol>
	<symbol id="arrow-left-icon" viewBox="0 0 25 10">
		<path d="M0,5l5,5V5.9h20V4.1H5V0"/>
	</symbol>
	<symbol id="arrow-right-icon" viewBox="0 0 25 10">
		<path d="M25,5l-5-5v4.1H0v1.8h20V10"/>
	</symbol>
	<symbol id="arrow-left-small-icon" viewBox="0 0 20 10">
		<path d="M0,5l5,5V5.9h15V4.1H5V0"/>
	</symbol>
	<symbol id="arrow-right-small-icon" viewBox="0 0 20 10">
		<path d="M20,5l-5-5v4.1H0l0,1.8h15V10"/>
	</symbol>
	<symbol id="search-icon" viewBox="0 0 32 32">
		<path d="M23.3,4.8C20.9,2.4,17.6,1,14.1,1S7.3,2.4,4.8,4.8S1,10.5,1,14s1.4,6.7,3.8,9.3c2.4,2.4,5.7,3.8,9.2,3.8
		c3,0,5.9-1,8.2-2.9l6.5,6.5c0.5,0.5,1.3,0.5,1.9,0c0.6-0.5,0.5-1.3,0-1.9l-6.5-6.5c1.9-2.3,2.9-5.2,2.9-8.2
		C27.1,10.5,25.7,7.2,23.3,4.8z M21.4,21.4c-4,4-10.7,4-14.7,0s-4.1-10.7,0-14.7c4-4,10.7-4,14.7,0S25.5,17.4,21.4,21.4z"/>
	</symbol>
	<symbol id="envelope-icon" viewBox="0 0 32 22">
		<path d="M31,0.7H1v20.6h30V0.7z M27.6,2.6l-11.4,9c-0.1,0.1-0.3,0.1-0.3,0l-11.5-9H27.6z M2.9,18.1V3.8l8.1,6.3
			L2.9,18.1z M4.2,19.4l8.2-8.2l0,0l2.3,1.8c0.4,0.3,0.8,0.5,1.3,0.5s0.9-0.2,1.3-0.5l2.2-1.8l8.2,8.2H4.2z M29.1,18.1l-8.1-8.1
			l8.1-6.3V18.1z"/>
	</symbol>
	<symbol id="hamburger-icon" viewBox="0 0 24 20">
	  <rect x="0" y="1" width="24" height="2"/>
	  <rect x="0" y="9" width="24" height="2"/>
	  <rect x="0" y="17" width="24" height="2"/>
	</symbol>
	<symbol id="love-icon" viewBox="0 0 32 32">
		<path d="M21,5.5c-1.9,0-3.8,0.9-5,2.4c-1.2-1.5-3.1-2.4-5-2.4c-3.6,0-6.5,3-6.5,6.7c0,4.8,6.2,10,10,13.1c0.3,0.3,0.9,0.7,1.2,1
			c0.2,0.2,0.5,0.2,0.7,0c0.4-0.3,1-0.9,1.4-1.2c3.7-3,9.8-8.1,9.8-13C27.5,8.5,24.6,5.5,21,5.5z"/>
	</symbol>
	<symbol id="angle-left-icon" viewBox="0 0 18.6 32">
		<polygon points="4.6,15.7 18.4,2.1 16,0 0,16 16.2,32 18.6,29.8 "/>
	</symbol>
	<symbol id="angle-right-icon" viewBox="0 0 18.6 32">
		<polygon points="13.9,16.3 0.2,29.9 2.6,32 18.6,16 2.4,0 0,2.2 "/>
	</symbol>
	<symbol id="close-icon" viewBox="0 0 24 24">
		<path d="M24,1.2L22.8,0L12,10.8L1.2,0L0,1.2L10.8,12L0,22.8L1.2,24L12,13.2L22.8,24l1.2-1.2L13.2,12"/>
	</symbol>
	<symbol id="quote" viewBox="0 0 32 32">
		<path d="M7.031 14c3.866 0 7 3.134 7 7s-3.134 7-7 7-7-3.134-7-7l-0.031-1c0-7.732 6.268-14 14-14v4c-2.671 0-5.182 1.040-7.071 2.929-0.364 0.364-0.695 0.751-0.995 1.157 0.357-0.056 0.724-0.086 1.097-0.086zM25.031 14c3.866 0 7 3.134 7 7s-3.134 7-7 7-7-3.134-7-7l-0.031-1c0-7.732 6.268-14 14-14v4c-2.671 0-5.182 1.040-7.071 2.929-0.364 0.364-0.695 0.751-0.995 1.157 0.358-0.056 0.724-0.086 1.097-0.086z"/>
	</symbol>	
</svg>
